<?xml version="1.0" encoding="UTF-8" standalone="no"?>
<!DOCTYPE svg PUBLIC "-//W3C//DTD SVG 1.1//EN"
 "http://www.w3.org/Graphics/SVG/1.1/DTD/svg11.dtd">
<!-- Generated by graphviz version 2.40.1 (20161225.0304)
 -->
<!-- Title: %3 Pages: 1 -->
<svg width="337pt" height="260pt"
 viewBox="0.00 0.00 336.50 260.00" xmlns="http://www.w3.org/2000/svg" xmlns:xlink="http://www.w3.org/1999/xlink">
<g id="graph0" class="graph" transform="scale(1 1) rotate(0) translate(4 256)">
<title>%3</title>
<!-- proposal -->
<g id="node1" class="node">
<title>proposal</title>
<polygon fill="#ffffff" stroke="#000000" points="232,-252 114,-252 114,-216 232,-216 232,-252"/>
<text text-anchor="middle" x="173" y="-230.9" font-family="Times,serif" font-size="12.00" fill="#000000">Project Proposal</text>
</g>
<!-- community -->
<g id="node2" class="node">
<title>community</title>
<polygon fill="#ffffff" stroke="#000000" points="239.5,-180 106.5,-180 106.5,-144 239.5,-144 239.5,-180"/>
<text text-anchor="middle" x="173" y="-158.9" font-family="Times,serif" font-size="12.00" fill="#000000">Community Review</text>
</g>
<!-- proposal&#45;&gt;community -->
<g id="edge1" class="edge">
<title>proposal&#45;&gt;community</title>
<path fill="none" stroke="#000000" d="M173,-215.8314C173,-208.131 173,-198.9743 173,-190.4166"/>
<polygon fill="#000000" stroke="#000000" points="176.5001,-190.4132 173,-180.4133 169.5001,-190.4133 176.5001,-190.4132"/>
</g>
<!-- review -->
<g id="node3" class="node">
<title>review</title>
<polygon fill="#ffffff" stroke="#000000" points="231,-108 115,-108 115,-72 231,-72 231,-108"/>
<text text-anchor="middle" x="173" y="-86.9" font-family="Times,serif" font-size="12.00" fill="#000000">Creation Review</text>
</g>
<!-- community&#45;&gt;review -->
<g id="edge2" class="edge">
<title>community&#45;&gt;review</title>
<path fill="none" stroke="#000000" d="M173,-143.8314C173,-136.131 173,-126.9743 173,-118.4166"/>
<polygon fill="#000000" stroke="#000000" points="176.5001,-118.4132 173,-108.4133 169.5001,-118.4133 176.5001,-118.4132"/>
</g>
<!-- provision -->
<g id="node4" class="node">
<title>provision</title>
<polygon fill="#ffffff" stroke="#000000" points="210,-36 136,-36 136,0 210,0 210,-36"/>
<text text-anchor="middle" x="173" y="-14.9" font-family="Times,serif" font-size="12.00" fill="#000000">Provision</text>
</g>
<!-- review&#45;&gt;provision -->
<g id="edge3" class="edge">
<title>review&#45;&gt;provision</title>
<path fill="none" stroke="#000000" d="M173,-71.8314C173,-64.131 173,-54.9743 173,-46.4166"/>
<polygon fill="#000000" stroke="#000000" points="176.5001,-46.4132 173,-36.4133 169.5001,-46.4133 176.5001,-46.4132"/>
</g>
<!-- approval -->
<g id="node5" class="node">
<title>approval</title>
<polygon fill="transparent" stroke="transparent" points="310,-252 250,-252 250,-216 310,-216 310,-252"/>
<text text-anchor="middle" x="280" y="-237" font-family="Times,serif" font-size="10.00" fill="#000000">EMO</text>
<text text-anchor="middle" x="280" y="-226" font-family="Times,serif" font-size="10.00" fill="#000000">Approval</text>
</g>
<!-- approval&#45;&gt;community -->
<g id="edge4" class="edge">
<title>approval&#45;&gt;community</title>
<path fill="none" stroke="#c0c0c0" d="M252.9994,-215.8314C239.5669,-206.7927 223.1527,-195.7476 208.6961,-186.0198"/>
<polygon fill="#c0c0c0" stroke="#c0c0c0" points="210.2425,-182.8418 199.992,-180.1628 206.3346,-188.6494 210.2425,-182.8418"/>
</g>
<!-- trademark -->
<g id="node6" class="node">
<title>trademark</title>
<polygon fill="transparent" stroke="transparent" points="328.5,-180 257.5,-180 257.5,-144 328.5,-144 328.5,-180"/>
<text text-anchor="middle" x="293" y="-165" font-family="Times,serif" font-size="10.00" fill="#000000">Trademark</text>
<text text-anchor="middle" x="293" y="-154" font-family="Times,serif" font-size="10.00" fill="#000000">Review</text>
</g>
<!-- trademark&#45;&gt;review -->
<g id="edge6" class="edge">
<title>trademark&#45;&gt;review</title>
<path fill="none" stroke="#c0c0c0" d="M262.7189,-143.8314C247.3702,-134.6221 228.5502,-123.3301 212.1177,-113.4706"/>
<polygon fill="#c0c0c0" stroke="#c0c0c0" points="213.6471,-110.3066 203.2714,-108.1628 210.0456,-116.3091 213.6471,-110.3066"/>
</g>
<!-- ic -->
<!-- trademark&#45;&gt;ic -->
<!-- mentors -->
<g id="node7" class="node">
<title>mentors</title>
<polygon fill="transparent" stroke="transparent" points="58,-180 0,-180 0,-144 58,-144 58,-180"/>
<text text-anchor="middle" x="29" y="-159.5" font-family="Times,serif" font-size="10.00" fill="#000000">Mentors</text>
</g>
<!-- mentors&#45;&gt;review -->
<g id="edge5" class="edge">
<title>mentors&#45;&gt;review</title>
<path fill="none" stroke="#c0c0c0" d="M58.1405,-147.4297C78.0761,-137.4619 104.9041,-124.0479 127.6185,-112.6907"/>
<polygon fill="#c0c0c0" stroke="#c0c0c0" points="129.3651,-115.7307 136.7441,-108.128 126.2345,-109.4697 129.3651,-115.7307"/>
</g>
<!-- mentors&#45;&gt;provision -->
<!-- paperwork -->
<g id="node8" class="node">
<title>paperwork</title>
<polygon fill="transparent" stroke="transparent" points="97,-108 27,-108 27,-72 97,-72 97,-108"/>
<text text-anchor="middle" x="62" y="-93" font-family="Times,serif" font-size="10.00" fill="#000000">Committer</text>
<text text-anchor="middle" x="62" y="-82" font-family="Times,serif" font-size="10.00" fill="#000000">Paperwork</text>
</g>
<!-- paperwork&#45;&gt;provision -->
<g id="edge7" class="edge">
<title>paperwork&#45;&gt;provision</title>
<path fill="none" stroke="#c0c0c0" d="M90.01,-71.8314C104.0761,-62.7074 121.294,-51.539 136.3933,-41.7449"/>
<polygon fill="#c0c0c0" stroke="#c0c0c0" points="138.514,-44.5412 144.999,-36.1628 134.7047,-38.6684 138.514,-44.5412"/>
</g>
</g>
</svg>
