<?xml version="1.0" encoding="UTF-8" standalone="no"?>
<!DOCTYPE svg PUBLIC "-//W3C//DTD SVG 1.1//EN"
 "http://www.w3.org/Graphics/SVG/1.1/DTD/svg11.dtd">
<!-- Generated by graphviz version 2.40.1 (20161225.0304)
 -->
<!-- Title: %3 Pages: 1 -->
<svg width="229pt" height="260pt"
 viewBox="0.00 0.00 229.00 260.00" xmlns="http://www.w3.org/2000/svg" xmlns:xlink="http://www.w3.org/1999/xlink">
<g id="graph0" class="graph" transform="scale(1 1) rotate(0) translate(4 256)">
<title>%3</title>
<!-- ic -->
<g id="node1" class="node">
<title>ic</title>
<polygon fill="#ffffff" stroke="#000000" points="135,-252 3,-252 3,-216 135,-216 135,-252"/>
<text text-anchor="middle" x="69" y="-237.4" font-family="Times,serif" font-size="12.00" fill="#000000">Submit</text>
<text text-anchor="middle" x="69" y="-224.4" font-family="Times,serif" font-size="12.00" fill="#000000">Initial Contribution</text>
</g>
<!-- git -->
<g id="node2" class="node">
<title>git</title>
<polygon fill="#ffffff" stroke="#000000" points="110.5,-180 27.5,-180 27.5,-144 110.5,-144 110.5,-180"/>
<text text-anchor="middle" x="69" y="-158.9" font-family="Times,serif" font-size="12.00" fill="#000000">Push to Git</text>
</g>
<!-- ic&#45;&gt;git -->
<g id="edge1" class="edge">
<title>ic&#45;&gt;git</title>
<path fill="none" stroke="#000000" d="M69,-215.8314C69,-208.131 69,-198.9743 69,-190.4166"/>
<polygon fill="#000000" stroke="#000000" points="72.5001,-190.4132 69,-180.4133 65.5001,-190.4133 72.5001,-190.4132"/>
</g>
<!-- build -->
<g id="node3" class="node">
<title>build</title>
<polygon fill="#ffffff" stroke="#000000" points="138,-108 0,-108 0,-72 138,-72 138,-108"/>
<text text-anchor="middle" x="69" y="-93.4" font-family="Times,serif" font-size="12.00" fill="#000000">Build and Distribute</text>
<text text-anchor="middle" x="69" y="-80.4" font-family="Times,serif" font-size="12.00" fill="#000000">(milestones)</text>
</g>
<!-- git&#45;&gt;build -->
<g id="edge2" class="edge">
<title>git&#45;&gt;build</title>
<path fill="none" stroke="#000000" d="M69,-143.8314C69,-136.131 69,-126.9743 69,-118.4166"/>
<polygon fill="#000000" stroke="#000000" points="72.5001,-118.4132 69,-108.4133 65.5001,-118.4133 72.5001,-118.4132"/>
</g>
<!-- release -->
<g id="node4" class="node">
<title>release</title>
<polygon fill="#ffffff" stroke="#000000" points="100.5,-36 37.5,-36 37.5,0 100.5,0 100.5,-36"/>
<text text-anchor="middle" x="69" y="-14.9" font-family="Times,serif" font-size="12.00" fill="#000000">Release</text>
</g>
<!-- build&#45;&gt;release -->
<g id="edge3" class="edge">
<title>build&#45;&gt;release</title>
<path fill="none" stroke="#000000" d="M69,-71.8314C69,-64.131 69,-54.9743 69,-46.4166"/>
<polygon fill="#000000" stroke="#000000" points="72.5001,-46.4132 69,-36.4133 65.5001,-46.4133 72.5001,-46.4132"/>
</g>
<!-- ip_checkin -->
<g id="node5" class="node">
<title>ip_checkin</title>
<polygon fill="transparent" stroke="transparent" points="221,-252 153,-252 153,-216 221,-216 221,-252"/>
<text text-anchor="middle" x="187" y="-237" font-family="Times,serif" font-size="10.00" fill="#000000">IP Team</text>
<text text-anchor="middle" x="187" y="-226" font-family="Times,serif" font-size="10.00" fill="#000000">&quot;Check&#45;in&quot;</text>
</g>
<!-- ip_checkin&#45;&gt;git -->
<g id="edge4" class="edge">
<title>ip_checkin&#45;&gt;git</title>
<path fill="none" stroke="#c0c0c0" d="M157.2236,-215.8314C142.1307,-206.6221 123.6243,-195.3301 107.4657,-185.4706"/>
<polygon fill="#c0c0c0" stroke="#c0c0c0" points="109.1263,-182.3838 98.7669,-180.1628 105.4802,-188.3593 109.1263,-182.3838"/>
</g>
<!-- ip_approval -->
<g id="node6" class="node">
<title>ip_approval</title>
<polygon fill="transparent" stroke="transparent" points="216,-108 156,-108 156,-72 216,-72 216,-108"/>
<text text-anchor="middle" x="186" y="-93" font-family="Times,serif" font-size="10.00" fill="#000000">IP Team</text>
<text text-anchor="middle" x="186" y="-82" font-family="Times,serif" font-size="10.00" fill="#000000">Approval</text>
</g>
<!-- ip_approval&#45;&gt;release -->
<g id="edge5" class="edge">
<title>ip_approval&#45;&gt;release</title>
<path fill="none" stroke="#c0c0c0" d="M156.476,-71.8314C141.5109,-62.6221 123.1614,-51.3301 107.1397,-41.4706"/>
<polygon fill="#c0c0c0" stroke="#c0c0c0" points="108.8655,-38.423 98.5146,-36.1628 105.1968,-44.3847 108.8655,-38.423"/>
</g>
</g>
</svg>
